<svg width="170" height="50" viewBox="0 0 170 50" fill="none" xmlns="http://www.w3.org/2000/svg">
<path d="M105.833 6.25H64.1667C61.8687 6.25 60 8.11865 60 10.4167V39.5834C60 41.8813 61.8687 43.75 64.1667 43.75H105.833C108.131 43.75 110 41.8813 110 39.5833V10.4167C110 8.11865 108.131 6.25 105.833 6.25ZM64.1667 8.3333H105.833C105.987 8.3333 106.122 8.38926 106.266 8.4209C102.659 11.7224 90.6976 22.6649 86.5117 26.4363C86.1842 26.7313 85.6563 27.0833 85.0001 27.0833C84.3439 27.0833 83.816 26.7313 83.4874 26.4354C79.302 22.6646 67.3399 11.7214 63.7332 8.42109C63.8775 8.38945 64.0131 8.3333 64.1667 8.3333ZM62.0833 39.5833V10.4167C62.0833 10.2126 62.1448 10.0274 62.1999 9.84092C64.9608 12.3679 73.3069 20.003 78.7187 24.9242C73.3245 29.5577 64.9763 37.4726 62.1934 40.1263C62.1442 39.9491 62.0833 39.7759 62.0833 39.5833ZM105.833 41.6667H64.1667C64.0003 41.6667 63.8523 41.6087 63.697 41.5716C66.5727 38.8302 74.974 30.8698 80.2733 26.3363C80.9642 26.963 81.5952 27.5344 82.0927 27.9826C82.9513 28.7578 83.9563 29.1667 85 29.1667C86.0437 29.1667 87.0487 28.7577 87.9063 27.9836C88.4039 27.5352 89.0354 26.9633 89.7267 26.3363C95.0263 30.8693 103.426 38.8291 106.303 41.5716C106.148 41.6087 106 41.6667 105.833 41.6667ZM107.917 39.5833C107.917 39.7758 107.856 39.9491 107.807 40.1263C105.023 37.4712 96.6755 29.5572 91.2814 24.9243C96.6934 20.0031 105.038 12.3687 107.8 9.84072C107.855 10.0272 107.917 10.2125 107.917 10.4166V39.5833V39.5833Z" fill="white"/>
<path d="M161.582 7.82088C152.166 -1.27363 137.237 -1.27363 127.821 7.82088C118.498 17.4736 118.765 32.8562 128.418 42.1791C137.834 51.2736 152.763 51.2736 162.179 42.1791C171.502 32.5265 171.235 17.1438 161.582 7.82088ZM161.037 41.0371L161.029 41.029C152.168 49.8816 137.809 49.875 128.956 41.0144C120.104 32.1538 120.11 17.7945 128.971 8.94194C137.832 0.0893716 152.191 0.0959208 161.044 8.95646C165.296 13.2125 167.683 18.9837 167.679 25C167.679 31.0149 165.29 36.7837 161.037 41.0371Z" fill="white" stroke="white" stroke-width="0.5"/>
<path d="M159.216 32.2052L154.475 27.4804C153.399 26.4017 151.652 26.3996 150.573 27.4758C150.572 27.4773 150.57 27.4788 150.568 27.4804L147.852 30.1971C147.646 30.4031 147.322 30.4316 147.084 30.2646C145.597 29.2255 144.205 28.0565 142.925 26.7717C141.778 25.6274 140.723 24.3946 139.769 23.0847C139.596 22.8494 139.621 22.5231 139.828 22.317L142.612 19.5327C143.687 18.4557 143.687 16.7119 142.612 15.6349L137.871 10.8933C136.778 9.84872 135.057 9.84872 133.965 10.8933L132.463 12.395C130.195 14.6375 129.385 17.9673 130.37 21.0008C131.106 23.2201 132.145 25.3269 133.458 27.261C134.641 29.0342 135.997 30.6847 137.508 32.1883C139.15 33.8424 140.97 35.3107 142.933 36.5671C145.091 37.9755 147.461 39.0293 149.953 39.6887C150.593 39.8466 151.25 39.9259 151.91 39.9249C154.171 39.9111 156.335 39.0009 157.926 37.3938L159.216 36.103C160.291 35.026 160.291 33.2822 159.216 32.2052ZM158.022 34.9523C158.02 34.9534 158.019 34.9546 158.018 34.9557L158.027 34.9303L156.736 36.2212C155.077 37.9007 152.662 38.5917 150.366 38.0436C148.053 37.4245 145.854 36.4389 143.852 35.1244C141.993 33.9361 140.27 32.547 138.714 30.9818C137.283 29.5609 135.997 28.0008 134.875 26.3246C133.649 24.521 132.678 22.5562 131.99 20.4862C131.202 18.0543 131.855 15.3859 133.677 13.5932L135.179 12.0914C135.597 11.672 136.275 11.6705 136.694 12.0881C136.696 12.0891 136.697 12.0902 136.698 12.0914L141.439 16.833C141.859 17.2505 141.86 17.929 141.443 18.3483C141.442 18.3494 141.441 18.3504 141.439 18.3516L138.655 21.1358C137.856 21.926 137.756 23.1817 138.419 24.0888C139.426 25.4708 140.54 26.7713 141.752 27.9783C143.102 29.3346 144.57 30.5684 146.139 31.6653C147.045 32.2975 148.274 32.1909 149.058 31.4122L151.749 28.6786C152.167 28.2592 152.845 28.2577 153.265 28.6753C153.266 28.6763 153.267 28.6774 153.268 28.6786L158.018 33.4371C158.438 33.8545 158.439 34.5329 158.022 34.9523Z" fill="white"/>
<path d="M25 0C11.2152 0 0 11.2152 0 25C0 38.7848 11.2152 50 25 50C38.7848 50 50 38.7848 50 25C50 11.2152 38.7848 0 25 0ZM25 47.9167C12.3637 47.9167 2.0833 37.6363 2.0833 25C2.0833 12.3637 12.3637 2.0833 25 2.0833C37.6363 2.0833 47.9167 12.3637 47.9167 25C47.9167 37.6363 37.6363 47.9167 25 47.9167Z" fill="white"/>
<path d="M29.9032 14.8885C29.4962 14.4815 28.837 14.4815 28.4302 14.8885C28.0233 15.2954 28.0233 15.9546 28.4302 16.3614L36.0271 23.9583H11.4583C10.8825 23.9583 10.4166 24.4242 10.4166 25C10.4166 25.5758 10.8825 26.0417 11.4583 26.0417H36.027L28.4301 33.6386C28.0232 34.0455 28.0232 34.7047 28.4301 35.1115C28.6335 35.3149 28.9001 35.4167 29.1666 35.4167C29.4331 35.4167 29.6996 35.3149 29.9032 35.1115L39.2781 25.7365C39.6851 25.3296 39.6851 24.6704 39.2781 24.2636L29.9032 14.8885Z" fill="white"/>
</svg>
