<svg width="400" height="270" viewBox="0 0 400 270" fill="none" xmlns="http://www.w3.org/2000/svg">
<path d="M5.6223 244.532C5.6223 240.612 6.41564 237.182 8.00231 234.242C9.58897 231.255 11.759 228.945 14.5123 227.312C17.3123 225.679 20.4156 224.862 23.8223 224.862C27.1823 224.862 30.099 225.585 32.5723 227.032C35.0456 228.479 36.889 230.299 38.1023 232.492V225.492H44.5423V263.852H38.1023V256.712C36.8423 258.952 34.9523 260.819 32.4323 262.312C29.959 263.759 27.0656 264.482 23.7523 264.482C20.3456 264.482 17.2656 263.642 14.5123 261.962C11.759 260.282 9.58897 257.925 8.00231 254.892C6.41564 251.859 5.6223 248.405 5.6223 244.532ZM38.1023 244.602C38.1023 241.709 37.519 239.189 36.3523 237.042C35.1856 234.895 33.599 233.262 31.5923 232.142C29.6323 230.975 27.4623 230.392 25.0823 230.392C22.7023 230.392 20.5323 230.952 18.5723 232.072C16.6123 233.192 15.049 234.825 13.8823 236.972C12.7156 239.119 12.1323 241.639 12.1323 244.532C12.1323 247.472 12.7156 250.039 13.8823 252.232C15.049 254.379 16.6123 256.035 18.5723 257.202C20.5323 258.322 22.7023 258.882 25.0823 258.882C27.4623 258.882 29.6323 258.322 31.5923 257.202C33.599 256.035 35.1856 254.379 36.3523 252.232C37.519 250.039 38.1023 247.495 38.1023 244.602ZM58.597 219.262C57.3837 219.262 56.357 218.842 55.517 218.002C54.677 217.162 54.257 216.135 54.257 214.922C54.257 213.709 54.677 212.682 55.517 211.842C56.357 211.002 57.3837 210.582 58.597 210.582C59.7637 210.582 60.7437 211.002 61.537 211.842C62.377 212.682 62.797 213.709 62.797 214.922C62.797 216.135 62.377 217.162 61.537 218.002C60.7437 218.842 59.7637 219.262 58.597 219.262ZM61.677 225.492V263.852H55.307V225.492H61.677ZM78.9036 231.722C80.0236 229.529 81.6102 227.825 83.6636 226.612C85.7636 225.399 88.3069 224.792 91.2936 224.792V231.372H89.6136C82.4736 231.372 78.9036 235.245 78.9036 242.992V263.852H72.5336V225.492H78.9036V231.722ZM112.227 264.482C109.287 264.482 106.65 263.992 104.317 263.012C101.984 261.985 100.14 260.585 98.7868 258.812C97.4335 256.992 96.6868 254.915 96.5468 252.582H103.127C103.314 254.495 104.2 256.059 105.787 257.272C107.42 258.485 109.544 259.092 112.157 259.092C114.584 259.092 116.497 258.555 117.897 257.482C119.297 256.409 119.997 255.055 119.997 253.422C119.997 251.742 119.25 250.505 117.757 249.712C116.264 248.872 113.954 248.055 110.827 247.262C107.98 246.515 105.647 245.769 103.827 245.022C102.054 244.229 100.514 243.085 99.2068 241.592C97.9468 240.052 97.3168 238.045 97.3168 235.572C97.3168 233.612 97.9002 231.815 99.0668 230.182C100.234 228.549 101.89 227.265 104.037 226.332C106.184 225.352 108.634 224.862 111.387 224.862C115.634 224.862 119.064 225.935 121.677 228.082C124.29 230.229 125.69 233.169 125.877 236.902H119.507C119.367 234.895 118.55 233.285 117.057 232.072C115.61 230.859 113.65 230.252 111.177 230.252C108.89 230.252 107.07 230.742 105.717 231.722C104.364 232.702 103.687 233.985 103.687 235.572C103.687 236.832 104.084 237.882 104.877 238.722C105.717 239.515 106.744 240.169 107.957 240.682C109.217 241.149 110.944 241.685 113.137 242.292C115.89 243.039 118.13 243.785 119.857 244.532C121.584 245.232 123.054 246.305 124.267 247.752C125.527 249.199 126.18 251.089 126.227 253.422C126.227 255.522 125.644 257.412 124.477 259.092C123.31 260.772 121.654 262.102 119.507 263.082C117.407 264.015 114.98 264.482 112.227 264.482ZM151.949 264.482C148.356 264.482 145.089 263.665 142.149 262.032C139.256 260.399 136.969 258.089 135.289 255.102C133.656 252.069 132.839 248.569 132.839 244.602C132.839 240.682 133.679 237.229 135.359 234.242C137.086 231.209 139.419 228.899 142.359 227.312C145.299 225.679 148.589 224.862 152.229 224.862C155.869 224.862 159.159 225.679 162.099 227.312C165.039 228.899 167.349 231.185 169.029 234.172C170.756 237.159 171.619 240.635 171.619 244.602C171.619 248.569 170.732 252.069 168.959 255.102C167.232 258.089 164.876 260.399 161.889 262.032C158.902 263.665 155.589 264.482 151.949 264.482ZM151.949 258.882C154.236 258.882 156.382 258.345 158.389 257.272C160.396 256.199 162.006 254.589 163.219 252.442C164.479 250.295 165.109 247.682 165.109 244.602C165.109 241.522 164.502 238.909 163.289 236.762C162.076 234.615 160.489 233.029 158.529 232.002C156.569 230.929 154.446 230.392 152.159 230.392C149.826 230.392 147.679 230.929 145.719 232.002C143.806 233.029 142.266 234.615 141.099 236.762C139.932 238.909 139.349 241.522 139.349 244.602C139.349 247.729 139.909 250.365 141.029 252.512C142.196 254.659 143.736 256.269 145.649 257.342C147.562 258.369 149.662 258.882 151.949 258.882ZM195.604 230.742H187.554V263.852H181.184V230.742H176.214V225.492H181.184V222.762C181.184 218.469 182.281 215.342 184.474 213.382C186.714 211.375 190.284 210.372 195.184 210.372V215.692C192.384 215.692 190.401 216.252 189.234 217.372C188.114 218.445 187.554 220.242 187.554 222.762V225.492H195.604V230.742ZM210.802 230.742V253.352C210.802 255.219 211.198 256.549 211.992 257.342C212.785 258.089 214.162 258.462 216.122 258.462H220.812V263.852H215.072C211.525 263.852 208.865 263.035 207.092 261.402C205.318 259.769 204.432 257.085 204.432 253.352V230.742H199.462V225.492H204.432V215.832H210.802V225.492H220.812V230.742H210.802ZM279.63 225.492L267.66 263.852H261.08L251.84 233.402L242.6 263.852H236.02L223.98 225.492H230.49L239.31 257.692L248.83 225.492H255.34L264.65 257.762L273.33 225.492H279.63ZM283.572 244.532C283.572 240.612 284.365 237.182 285.952 234.242C287.538 231.255 289.708 228.945 292.462 227.312C295.262 225.679 298.365 224.862 301.772 224.862C305.132 224.862 308.048 225.585 310.522 227.032C312.995 228.479 314.838 230.299 316.052 232.492V225.492H322.492V263.852H316.052V256.712C314.792 258.952 312.902 260.819 310.382 262.312C307.908 263.759 305.015 264.482 301.702 264.482C298.295 264.482 295.215 263.642 292.462 261.962C289.708 260.282 287.538 257.925 285.952 254.892C284.365 251.859 283.572 248.405 283.572 244.532ZM316.052 244.602C316.052 241.709 315.468 239.189 314.302 237.042C313.135 234.895 311.548 233.262 309.542 232.142C307.582 230.975 305.412 230.392 303.032 230.392C300.652 230.392 298.482 230.952 296.522 232.072C294.562 233.192 292.998 234.825 291.832 236.972C290.665 239.119 290.082 241.639 290.082 244.532C290.082 247.472 290.665 250.039 291.832 252.232C292.998 254.379 294.562 256.035 296.522 257.202C298.482 258.322 300.652 258.882 303.032 258.882C305.412 258.882 307.582 258.322 309.542 257.202C311.548 256.035 313.135 254.379 314.302 252.232C315.468 250.039 316.052 247.495 316.052 244.602ZM339.626 231.722C340.746 229.529 342.333 227.825 344.386 226.612C346.486 225.399 349.03 224.792 352.016 224.792V231.372H350.336C343.196 231.372 339.626 235.245 339.626 242.992V263.852H333.256V225.492H339.626V231.722ZM394.369 243.202C394.369 244.415 394.299 245.699 394.159 247.052H363.499C363.733 250.832 365.016 253.795 367.349 255.942C369.729 258.042 372.599 259.092 375.959 259.092C378.713 259.092 380.999 258.462 382.819 257.202C384.686 255.895 385.993 254.169 386.739 252.022H393.599C392.573 255.709 390.519 258.719 387.439 261.052C384.359 263.339 380.533 264.482 375.959 264.482C372.319 264.482 369.053 263.665 366.159 262.032C363.313 260.399 361.073 258.089 359.439 255.102C357.806 252.069 356.989 248.569 356.989 244.602C356.989 240.635 357.783 237.159 359.369 234.172C360.956 231.185 363.173 228.899 366.019 227.312C368.913 225.679 372.226 224.862 375.959 224.862C379.599 224.862 382.819 225.655 385.619 227.242C388.419 228.829 390.566 231.022 392.059 233.822C393.599 236.575 394.369 239.702 394.369 243.202ZM387.789 241.872C387.789 239.445 387.253 237.369 386.179 235.642C385.106 233.869 383.636 232.539 381.769 231.652C379.949 230.719 377.919 230.252 375.679 230.252C372.459 230.252 369.706 231.279 367.419 233.332C365.179 235.385 363.896 238.232 363.569 241.872H387.789Z" fill="white"/>
<path d="M225 1H162L116 85H181L225 1Z" fill="#303030" stroke="#303030"/>
<path d="M231 202L183 109L182.5 108L151 169L168 202H231Z" fill="white" stroke="white"/>
<path d="M283 85L238 2L207 62L219 85H283Z" fill="white" stroke="white"/>
<path d="M262 169L295 105L349 202H280L262 169Z" fill="white" stroke="white"/>
<path d="M175 96H110L50 202H119L175 96Z" fill="#303030" stroke="#303030"/>
<path d="M286 96H224L207 129L238 189L286 96Z" fill="#303030" stroke="#303030"/>
</svg>
